<svg width="40" height="40" viewBox="0 0 40 40" fill="none" xmlns="http://www.w3.org/2000/svg">
<path d="M32.2961 1.34309C30.8001 1.74396 29.7756 3.32381 30.3235 4.83796L35.061 17.9275C35.3935 17.6536 35.8133 17.4966 36.2524 17.4966C36.9636 17.4824 37.7285 17.4848 38.4143 17.5271L35.7544 3.37672C35.4951 1.9979 34.1876 1.16785 32.8625 1.25024C32.6733 1.26205 32.4831 1.29301 32.2961 1.34309ZM33.125 3.74906C33.4702 3.74906 33.75 4.0288 33.75 4.37399C33.75 4.71918 33.4702 4.999 33.125 4.999C32.7798 4.999 32.5 4.71916 32.5 4.37399C32.5 4.02883 32.7798 3.74906 33.125 3.74906ZM18.5058 8.17531C16.9508 8.85255 16.0042 10.313 15.5225 11.6653L15.0037 13.1228H22.5427C22.7537 12.5512 23.0459 12.0571 23.9197 11.5493L30.0281 7.69433L29.1479 5.2627C28.9838 4.80885 28.9169 4.353 28.927 3.90895L18.5058 8.17531ZM14.3787 14.3728C13.3479 14.3728 12.6193 15.2457 12.5098 16.177L12.5239 16.0988L11.3887 20.624H3.12575C2.09781 20.624 1.24831 21.4698 1.24831 22.4978V26.8764C1.24831 27.9044 2.09781 28.7489 3.12575 28.7489H24.377C25.405 28.7489 26.2775 27.906 26.2544 26.8617V22.4978C26.2538 22.4186 26.2379 22.3404 26.2081 22.2669L23.7081 16.0158C23.5735 15.6794 23.4203 15.3126 23.1441 14.9818C22.868 14.651 22.4096 14.3727 21.8807 14.3727L14.3787 14.3728ZM15.6213 16.874H15.6284H17.5022V21.8752H14.6275C14.2147 21.8758 13.9144 21.4837 14.0232 21.0855L15.0242 17.3391C15.096 17.0676 15.3405 16.8773 15.6213 16.874ZM18.7524 16.874H20.7593C21.0107 16.8739 21.2377 17.0245 21.3354 17.2561L23.7024 22.8811C23.7357 22.9581 23.7532 23.0412 23.7537 23.1252V25.6265C23.7524 25.9697 23.4743 26.2477 23.1311 26.249H19.3799C19.1708 26.2497 18.975 26.1458 18.8586 25.9719L18.7523 25.812L18.7524 16.874ZM36.2524 18.7466C36.054 18.7466 35.8673 18.8408 35.7495 19.0004L30.1257 26.498C29.816 26.9095 30.1092 27.498 30.6238 27.4991H34.375C36.7879 27.4991 38.7476 25.5382 38.7476 23.1252V19.374C38.7488 19.0288 38.4702 18.7479 38.125 18.7465L36.2524 18.7466ZM4.36645 23.1155C4.71735 23.1108 5.00287 23.3969 4.99879 23.7478V25.6265C5.01768 26.4787 3.72965 26.4787 3.74878 25.6265V23.7478C3.74405 23.4026 4.02128 23.1196 4.36645 23.1155ZM6.86767 23.1155C7.21857 23.1108 7.50409 23.3969 7.50001 23.7478V25.6265C7.5189 26.478 6.23162 26.478 6.25 25.6265V23.7478C6.24528 23.4026 6.5225 23.1196 6.86767 23.1155ZM9.364 23.1155C9.71635 23.1084 10.0042 23.3954 10 23.7478V25.6265C9.9811 26.4413 8.7683 26.4413 8.74999 25.6265V23.7478C8.74524 23.404 9.02027 23.1215 9.364 23.1155ZM5.62621 29.999C3.21329 29.999 1.24756 31.9611 1.24756 34.374C1.24756 36.7869 3.21329 38.7466 5.62621 38.7466H25C27.4129 38.7466 29.3726 36.7869 29.3726 34.374C29.3726 31.9611 27.4129 29.999 25 29.999H5.62621ZM6.87745 32.5002C7.90557 32.5002 8.74997 33.3459 8.74999 34.374C8.74999 35.4021 7.9056 36.2515 6.87745 36.2515C5.8493 36.2515 4.99879 35.4021 4.99879 34.374C4.99879 33.3459 5.84935 32.5002 6.87745 32.5002ZM12.5012 32.5002C13.5293 32.5002 14.3738 33.3459 14.3738 34.374C14.3738 35.4021 13.5293 36.2515 12.5012 36.2515C11.4731 36.2515 10.6226 35.4021 10.6226 34.374C10.6226 33.3459 11.4731 32.5002 12.5012 32.5002ZM18.125 32.5002C19.1531 32.5002 19.9975 33.3459 19.9976 34.374C19.9976 35.4021 19.1531 36.2515 18.125 36.2515C17.0968 36.2515 16.2524 35.4021 16.2524 34.374C16.2525 33.3459 17.0969 32.5002 18.125 32.5002ZM23.7488 32.5002C24.7769 32.5002 25.6274 33.3459 25.6274 34.374C25.6274 35.4021 24.7769 36.2515 23.7488 36.2515C22.7206 36.2515 21.8762 35.4021 21.8762 34.374C21.8762 33.3459 22.7207 32.5002 23.7488 32.5002Z" fill="white"/>
</svg>
